<svg width="42" height="42" viewBox="0 0 42 42" fill="none" xmlns="http://www.w3.org/2000/svg">
<g clip-path="url(#clip0_651_11750)">
<path d="M21 3.78164C26.6109 3.78164 27.2754 3.80625 29.482 3.90469C31.5328 3.99492 32.6402 4.33945 33.3785 4.62656C34.3547 5.00391 35.0602 5.46328 35.7902 6.19336C36.5285 6.93164 36.9797 7.62891 37.357 8.60508C37.6441 9.34336 37.9887 10.459 38.0789 12.5016C38.1773 14.7164 38.202 15.3809 38.202 20.9836C38.202 26.5945 38.1773 27.259 38.0789 29.4656C37.9887 31.5164 37.6441 32.6238 37.357 33.3621C36.9797 34.3383 36.5203 35.0438 35.7902 35.7738C35.052 36.5121 34.3547 36.9633 33.3785 37.3406C32.6402 37.6277 31.5246 37.9723 29.482 38.0625C27.2672 38.1609 26.6027 38.1855 21 38.1855C15.3891 38.1855 14.7246 38.1609 12.518 38.0625C10.4672 37.9723 9.35977 37.6277 8.62149 37.3406C7.64531 36.9633 6.93984 36.5039 6.20977 35.7738C5.47148 35.0355 5.02031 34.3383 4.64297 33.3621C4.35586 32.6238 4.01133 31.5082 3.92109 29.4656C3.82266 27.2508 3.79805 26.5863 3.79805 20.9836C3.79805 15.3727 3.82266 14.7082 3.92109 12.5016C4.01133 10.4508 4.35586 9.34336 4.64297 8.60508C5.02031 7.62891 5.47969 6.92344 6.20977 6.19336C6.94805 5.45508 7.64531 5.00391 8.62149 4.62656C9.35977 4.33945 10.4754 3.99492 12.518 3.90469C14.7246 3.80625 15.3891 3.78164 21 3.78164ZM21 0C15.2988 0 14.5852 0.0246094 12.3457 0.123047C10.1145 0.221484 8.58047 0.582422 7.25156 1.09922C5.86523 1.64062 4.69219 2.3543 3.52734 3.52734C2.3543 4.69219 1.64063 5.86524 1.09922 7.24336C0.582422 8.58047 0.221484 10.1062 0.123047 12.3375C0.0246094 14.5852 0 15.2988 0 21C0 26.7012 0.0246094 27.4148 0.123047 29.6543C0.221484 31.8855 0.582422 33.4195 1.09922 34.7484C1.64063 36.1348 2.3543 37.3078 3.52734 38.4727C4.69219 39.6375 5.86524 40.3594 7.24336 40.8926C8.58047 41.4094 10.1063 41.7703 12.3375 41.8687C14.577 41.9672 15.2906 41.9918 20.9918 41.9918C26.693 41.9918 27.4066 41.9672 29.6461 41.8687C31.8773 41.7703 33.4113 41.4094 34.7402 40.8926C36.1184 40.3594 37.2914 39.6375 38.4563 38.4727C39.6211 37.3078 40.343 36.1348 40.8762 34.7566C41.393 33.4195 41.7539 31.8938 41.8523 29.6625C41.9508 27.423 41.9754 26.7094 41.9754 21.0082C41.9754 15.307 41.9508 14.5934 41.8523 12.3539C41.7539 10.1227 41.393 8.58867 40.8762 7.25977C40.3594 5.86523 39.6457 4.69219 38.4727 3.52734C37.3078 2.3625 36.1348 1.64062 34.7566 1.10742C33.4195 0.590625 31.8938 0.229688 29.6625 0.13125C27.4148 0.0246094 26.7012 0 21 0Z" fill="url(#paint0_linear_651_11750)"/>
<path d="M21 10.2129C15.0445 10.2129 10.2129 15.0445 10.2129 21C10.2129 26.9555 15.0445 31.7871 21 31.7871C26.9555 31.7871 31.7871 26.9555 31.7871 21C31.7871 15.0445 26.9555 10.2129 21 10.2129ZM21 27.9973C17.1363 27.9973 14.0027 24.8637 14.0027 21C14.0027 17.1363 17.1363 14.0027 21 14.0027C24.8637 14.0027 27.9973 17.1363 27.9973 21C27.9973 24.8637 24.8637 27.9973 21 27.9973Z" fill="url(#paint1_linear_651_11750)"/>
<path d="M34.732 9.78594C34.732 11.1805 33.6 12.3043 32.2137 12.3043C30.8191 12.3043 29.6953 11.1723 29.6953 9.78594C29.6953 8.39141 30.8273 7.26758 32.2137 7.26758C33.6 7.26758 34.732 8.39961 34.732 9.78594Z" fill="url(#paint2_linear_651_11750)"/>
</g>
<defs>
<linearGradient id="paint0_linear_651_11750" x1="41.9754" y1="20.9959" x2="-1.12638e-06" y2="20.9959" gradientUnits="userSpaceOnUse">
<stop stop-color="#4D5EF6"/>
<stop offset="1" stop-color="#F64D4D"/>
</linearGradient>
<linearGradient id="paint1_linear_651_11750" x1="31.7871" y1="21" x2="10.2129" y2="21" gradientUnits="userSpaceOnUse">
<stop stop-color="#4D5EF6"/>
<stop offset="1" stop-color="#F64D4D"/>
</linearGradient>
<linearGradient id="paint2_linear_651_11750" x1="34.732" y1="9.78594" x2="29.6953" y2="9.78594" gradientUnits="userSpaceOnUse">
<stop stop-color="#4D5EF6"/>
<stop offset="1" stop-color="#F64D4D"/>
</linearGradient>
<clipPath id="clip0_651_11750">
<rect width="42" height="42" fill="white"/>
</clipPath>
</defs>
</svg>
