<svg width="42" height="42" viewBox="0 0 42 42" fill="none" xmlns="http://www.w3.org/2000/svg">
<g clip-path="url(#clip0_651_11749)">
<path d="M21 42C32.598 42 42 32.598 42 21C42 9.40202 32.598 0 21 0C9.40202 0 0 9.40202 0 21C0 32.598 9.40202 42 21 42Z" fill="url(#paint0_linear_651_11749)"/>
<path fill-rule="evenodd" clip-rule="evenodd" d="M9.50578 20.7789C15.6277 18.1117 19.71 16.3533 21.7525 15.5037C27.5844 13.078 28.7963 12.6566 29.5861 12.6427C29.7598 12.6397 30.1483 12.6827 30.3999 12.8869C30.6123 13.0593 30.6708 13.2921 30.6987 13.4556C30.7267 13.619 30.7615 13.9914 30.7339 14.2823C30.4178 17.6029 29.0503 25.6611 28.3547 29.3802C28.0603 30.9539 27.4806 31.4815 26.9195 31.5332C25.7 31.6454 24.7739 30.7273 23.5928 29.953C21.7445 28.7414 20.7004 27.9872 18.9063 26.805C16.8329 25.4386 18.177 24.6877 19.3586 23.4604C19.6678 23.1393 25.041 18.2519 25.145 17.8086C25.158 17.7531 25.1701 17.5464 25.0473 17.4373C24.9245 17.3282 24.7433 17.3655 24.6125 17.3952C24.4271 17.4372 21.4745 19.3888 15.7546 23.2499C14.9165 23.8254 14.1574 24.1058 13.4772 24.0911C12.7274 24.0749 11.2851 23.6672 10.2129 23.3186C8.89773 22.8911 7.8525 22.6651 7.94351 21.9391C7.99092 21.561 8.51168 21.1742 9.50578 20.7789Z" fill="white"/>
</g>
<defs>
<linearGradient id="paint0_linear_651_11749" x1="21" y1="0" x2="21" y2="41.6885" gradientUnits="userSpaceOnUse">
<stop stop-color="#2AABEE"/>
<stop offset="1" stop-color="#229ED9"/>
</linearGradient>
<clipPath id="clip0_651_11749">
<rect width="42" height="42" fill="white"/>
</clipPath>
</defs>
</svg>
