<svg width="42" height="42" viewBox="0 0 42 42" fill="none" xmlns="http://www.w3.org/2000/svg">
<path d="M30.0591 15.1608C32.76 17.0984 36.0687 18.2384 39.6422 18.2384V11.3373C38.9659 11.3375 38.2913 11.2667 37.6297 11.126V16.5581C34.0564 16.5581 30.7482 15.4181 28.0466 13.4807V27.5638C28.0466 34.6089 22.3557 40.3196 15.3361 40.3196C12.717 40.3196 10.2825 39.525 8.26025 38.1621C10.5683 40.5305 13.7872 41.9997 17.3482 41.9997C24.3683 41.9997 30.0594 36.289 30.0594 29.2436V15.1608H30.0591ZM32.5418 8.19849C31.1615 6.68515 30.2552 4.72944 30.0591 2.56731V1.67969H28.152C28.632 4.42775 30.2694 6.77553 32.5418 8.19849ZM12.7002 32.7559C11.929 31.7412 11.5122 30.4998 11.5141 29.2234C11.5141 26.0013 14.1171 23.3887 17.3284 23.3887C17.9269 23.3886 18.5218 23.4805 19.0921 23.6622V16.6069C18.4256 16.5152 17.7529 16.4763 17.0805 16.4905V21.982C16.5097 21.8004 15.9145 21.7082 15.3159 21.7087C12.1045 21.7087 9.50173 24.321 9.50173 27.5436C9.50173 29.8222 10.8028 31.7949 12.7002 32.7559Z" fill="#FF004F"/>
<path d="M28.0462 13.4806C30.7478 15.418 34.056 16.558 37.6293 16.558V11.1259C35.6347 10.6995 33.869 9.65346 32.5414 8.19849C30.2689 6.77538 28.6316 4.4276 28.1516 1.67969H23.142V29.2433C23.1307 32.4567 20.5322 35.0586 17.3277 35.0586C15.4394 35.0586 13.7618 34.1552 12.6993 32.7559C10.8021 31.7949 9.50103 29.8221 9.50103 27.5437C9.50103 24.3215 12.1038 21.7089 15.3152 21.7089C15.9305 21.7089 16.5235 21.805 17.0798 21.9822V16.4907C10.1835 16.6337 4.63721 22.2886 4.63721 29.2435C4.63721 32.7153 6.01836 35.8626 8.25999 38.1622C10.2823 39.5249 12.7167 40.3197 15.3359 40.3197C22.3556 40.3197 28.0463 34.6087 28.0463 27.5638V13.4806H28.0462Z" fill="#1E1E1E"/>
<path d="M37.6294 11.1262V9.65735C35.8308 9.66009 34.0675 9.15458 32.5415 8.19863C33.8924 9.68286 35.6712 10.7063 37.6294 11.1262ZM28.1517 1.67997C28.1059 1.41734 28.0708 1.15299 28.0464 0.887624V0H21.1295V27.5639C21.1185 30.7768 18.5201 33.3787 15.3154 33.3787C14.3745 33.3787 13.4862 33.1546 12.6995 32.7563C13.7619 34.1555 15.4395 35.0587 17.3279 35.0587C20.532 35.0587 23.131 32.4571 23.1422 29.2437V1.67997H28.1517ZM17.0802 16.491V14.9273C16.5023 14.848 15.9196 14.8082 15.3362 14.8085C8.31585 14.8084 2.625 20.5194 2.625 27.5639C2.625 31.9804 4.8616 35.8727 8.2603 38.1622C6.01867 35.8627 4.63751 32.7153 4.63751 29.2436C4.63751 22.2889 10.1837 16.6339 17.0802 16.491Z" fill="#00F2EA"/>
</svg>
